<?xml version="1.0" encoding="utf-8" standalone="no"?>
<!DOCTYPE svg PUBLIC "-//W3C//DTD SVG 1.1//EN"
  "http://www.w3.org/Graphics/SVG/1.1/DTD/svg11.dtd">
<svg xmlns:xlink="http://www.w3.org/1999/xlink" width="460.8pt" height="345.6pt" viewBox="0 0 460.8 345.6" xmlns="http://www.w3.org/2000/svg" version="1.1">
 <metadata>
  <rdf:RDF xmlns:dc="http://purl.org/dc/elements/1.1/" xmlns:cc="http://creativecommons.org/ns#" xmlns:rdf="http://www.w3.org/1999/02/22-rdf-syntax-ns#">
   <cc:Work>
    <dc:type rdf:resource="http://purl.org/dc/dcmitype/StillImage"/>
    <dc:date>2022-09-14T10:53:00.246582</dc:date>
    <dc:format>image/svg+xml</dc:format>
    <dc:creator>
     <cc:Agent>
      <dc:title>Matplotlib v3.5.1, https://matplotlib.org/</dc:title>
     </cc:Agent>
    </dc:creator>
   </cc:Work>
  </rdf:RDF>
 </metadata>
 <defs>
  <style type="text/css">*{stroke-linejoin: round; stroke-linecap: butt}</style>
 </defs>
 <g id="figure_1">
  <g id="patch_1">
   <path d="M 0 345.6 
L 460.8 345.6 
L 460.8 0 
L 0 0 
z
" style="fill: #ffffff"/>
  </g>
  <g id="axes_1">
   <g id="patch_2">
    <path d="M 57.6 307.584 
L 414.72 307.584 
L 414.72 41.472 
L 57.6 41.472 
z
" style="fill: #ffffff"/>
   </g>
   <g id="matplotlib.axis_1">
    <g id="xtick_1">
     <g id="line2d_1">
      <defs>
       <path id="md863e12f4d" d="M 0 0 
L 0 3.5 
" style="stroke: #000000; stroke-width: 0.8"/>
      </defs>
      <g>
       <use xlink:href="#md863e12f4d" x="73.832727" y="307.584" style="stroke: #000000; stroke-width: 0.8"/>
      </g>
     </g>
     <g id="text_1">
      <!-- $\mathdefault{10^{3}}$ -->
      <g transform="translate(65.032727 322.182437)scale(0.1 -0.1)">
       <defs>
        <path id="DejaVuSans-31" d="M 794 531 
L 1825 531 
L 1825 4091 
L 703 3866 
L 703 4441 
L 1819 4666 
L 2450 4666 
L 2450 531 
L 3481 531 
L 3481 0 
L 794 0 
L 794 531 
z
" transform="scale(0.015625)"/>
        <path id="DejaVuSans-30" d="M 2034 4250 
Q 1547 4250 1301 3770 
Q 1056 3291 1056 2328 
Q 1056 1369 1301 889 
Q 1547 409 2034 409 
Q 2525 409 2770 889 
Q 3016 1369 3016 2328 
Q 3016 3291 2770 3770 
Q 2525 4250 2034 4250 
z
M 2034 4750 
Q 2819 4750 3233 4129 
Q 3647 3509 3647 2328 
Q 3647 1150 3233 529 
Q 2819 -91 2034 -91 
Q 1250 -91 836 529 
Q 422 1150 422 2328 
Q 422 3509 836 4129 
Q 1250 4750 2034 4750 
z
" transform="scale(0.015625)"/>
        <path id="DejaVuSans-33" d="M 2597 2516 
Q 3050 2419 3304 2112 
Q 3559 1806 3559 1356 
Q 3559 666 3084 287 
Q 2609 -91 1734 -91 
Q 1441 -91 1130 -33 
Q 819 25 488 141 
L 488 750 
Q 750 597 1062 519 
Q 1375 441 1716 441 
Q 2309 441 2620 675 
Q 2931 909 2931 1356 
Q 2931 1769 2642 2001 
Q 2353 2234 1838 2234 
L 1294 2234 
L 1294 2753 
L 1863 2753 
Q 2328 2753 2575 2939 
Q 2822 3125 2822 3475 
Q 2822 3834 2567 4026 
Q 2313 4219 1838 4219 
Q 1578 4219 1281 4162 
Q 984 4106 628 3988 
L 628 4550 
Q 988 4650 1302 4700 
Q 1616 4750 1894 4750 
Q 2613 4750 3031 4423 
Q 3450 4097 3450 3541 
Q 3450 3153 3228 2886 
Q 3006 2619 2597 2516 
z
" transform="scale(0.015625)"/>
       </defs>
       <use xlink:href="#DejaVuSans-31" transform="translate(0 0.765625)"/>
       <use xlink:href="#DejaVuSans-30" transform="translate(63.623047 0.765625)"/>
       <use xlink:href="#DejaVuSans-33" transform="translate(128.203125 39.046875)scale(0.7)"/>
      </g>
     </g>
    </g>
    <g id="xtick_2">
     <g id="line2d_2">
      <g>
       <use xlink:href="#md863e12f4d" x="154.996364" y="307.584" style="stroke: #000000; stroke-width: 0.8"/>
      </g>
     </g>
     <g id="text_2">
      <!-- $\mathdefault{10^{4}}$ -->
      <g transform="translate(146.196364 322.182437)scale(0.1 -0.1)">
       <defs>
        <path id="DejaVuSans-34" d="M 2419 4116 
L 825 1625 
L 2419 1625 
L 2419 4116 
z
M 2253 4666 
L 3047 4666 
L 3047 1625 
L 3713 1625 
L 3713 1100 
L 3047 1100 
L 3047 0 
L 2419 0 
L 2419 1100 
L 313 1100 
L 313 1709 
L 2253 4666 
z
" transform="scale(0.015625)"/>
       </defs>
       <use xlink:href="#DejaVuSans-31" transform="translate(0 0.684375)"/>
       <use xlink:href="#DejaVuSans-30" transform="translate(63.623047 0.684375)"/>
       <use xlink:href="#DejaVuSans-34" transform="translate(128.203125 38.965625)scale(0.7)"/>
      </g>
     </g>
    </g>
    <g id="xtick_3">
     <g id="line2d_3">
      <g>
       <use xlink:href="#md863e12f4d" x="236.16" y="307.584" style="stroke: #000000; stroke-width: 0.8"/>
      </g>
     </g>
     <g id="text_3">
      <!-- $\mathdefault{10^{5}}$ -->
      <g transform="translate(227.36 322.182437)scale(0.1 -0.1)">
       <defs>
        <path id="DejaVuSans-35" d="M 691 4666 
L 3169 4666 
L 3169 4134 
L 1269 4134 
L 1269 2991 
Q 1406 3038 1543 3061 
Q 1681 3084 1819 3084 
Q 2600 3084 3056 2656 
Q 3513 2228 3513 1497 
Q 3513 744 3044 326 
Q 2575 -91 1722 -91 
Q 1428 -91 1123 -41 
Q 819 9 494 109 
L 494 744 
Q 775 591 1075 516 
Q 1375 441 1709 441 
Q 2250 441 2565 725 
Q 2881 1009 2881 1497 
Q 2881 1984 2565 2268 
Q 2250 2553 1709 2553 
Q 1456 2553 1204 2497 
Q 953 2441 691 2322 
L 691 4666 
z
" transform="scale(0.015625)"/>
       </defs>
       <use xlink:href="#DejaVuSans-31" transform="translate(0 0.684375)"/>
       <use xlink:href="#DejaVuSans-30" transform="translate(63.623047 0.684375)"/>
       <use xlink:href="#DejaVuSans-35" transform="translate(128.203125 38.965625)scale(0.7)"/>
      </g>
     </g>
    </g>
    <g id="xtick_4">
     <g id="line2d_4">
      <g>
       <use xlink:href="#md863e12f4d" x="317.323636" y="307.584" style="stroke: #000000; stroke-width: 0.8"/>
      </g>
     </g>
     <g id="text_4">
      <!-- $\mathdefault{10^{6}}$ -->
      <g transform="translate(308.523636 322.182437)scale(0.1 -0.1)">
       <defs>
        <path id="DejaVuSans-36" d="M 2113 2584 
Q 1688 2584 1439 2293 
Q 1191 2003 1191 1497 
Q 1191 994 1439 701 
Q 1688 409 2113 409 
Q 2538 409 2786 701 
Q 3034 994 3034 1497 
Q 3034 2003 2786 2293 
Q 2538 2584 2113 2584 
z
M 3366 4563 
L 3366 3988 
Q 3128 4100 2886 4159 
Q 2644 4219 2406 4219 
Q 1781 4219 1451 3797 
Q 1122 3375 1075 2522 
Q 1259 2794 1537 2939 
Q 1816 3084 2150 3084 
Q 2853 3084 3261 2657 
Q 3669 2231 3669 1497 
Q 3669 778 3244 343 
Q 2819 -91 2113 -91 
Q 1303 -91 875 529 
Q 447 1150 447 2328 
Q 447 3434 972 4092 
Q 1497 4750 2381 4750 
Q 2619 4750 2861 4703 
Q 3103 4656 3366 4563 
z
" transform="scale(0.015625)"/>
       </defs>
       <use xlink:href="#DejaVuSans-31" transform="translate(0 0.765625)"/>
       <use xlink:href="#DejaVuSans-30" transform="translate(63.623047 0.765625)"/>
       <use xlink:href="#DejaVuSans-36" transform="translate(128.203125 39.046875)scale(0.7)"/>
      </g>
     </g>
    </g>
    <g id="xtick_5">
     <g id="line2d_5">
      <g>
       <use xlink:href="#md863e12f4d" x="398.487273" y="307.584" style="stroke: #000000; stroke-width: 0.8"/>
      </g>
     </g>
     <g id="text_5">
      <!-- $\mathdefault{10^{7}}$ -->
      <g transform="translate(389.687273 322.182437)scale(0.1 -0.1)">
       <defs>
        <path id="DejaVuSans-37" d="M 525 4666 
L 3525 4666 
L 3525 4397 
L 1831 0 
L 1172 0 
L 2766 4134 
L 525 4134 
L 525 4666 
z
" transform="scale(0.015625)"/>
       </defs>
       <use xlink:href="#DejaVuSans-31" transform="translate(0 0.684375)"/>
       <use xlink:href="#DejaVuSans-30" transform="translate(63.623047 0.684375)"/>
       <use xlink:href="#DejaVuSans-37" transform="translate(128.203125 38.965625)scale(0.7)"/>
      </g>
     </g>
    </g>
    <g id="xtick_6">
     <g id="line2d_6">
      <defs>
       <path id="mbfeb66a2dd" d="M 0 0 
L 0 2 
" style="stroke: #000000; stroke-width: 0.6"/>
      </defs>
      <g>
       <use xlink:href="#mbfeb66a2dd" x="61.260321" y="307.584" style="stroke: #000000; stroke-width: 0.6"/>
      </g>
     </g>
    </g>
    <g id="xtick_7">
     <g id="line2d_7">
      <g>
       <use xlink:href="#mbfeb66a2dd" x="65.967158" y="307.584" style="stroke: #000000; stroke-width: 0.6"/>
      </g>
     </g>
    </g>
    <g id="xtick_8">
     <g id="line2d_8">
      <g>
       <use xlink:href="#mbfeb66a2dd" x="70.118883" y="307.584" style="stroke: #000000; stroke-width: 0.6"/>
      </g>
     </g>
    </g>
    <g id="xtick_9">
     <g id="line2d_9">
      <g>
       <use xlink:href="#mbfeb66a2dd" x="98.265416" y="307.584" style="stroke: #000000; stroke-width: 0.6"/>
      </g>
     </g>
    </g>
    <g id="xtick_10">
     <g id="line2d_10">
      <g>
       <use xlink:href="#mbfeb66a2dd" x="112.557623" y="307.584" style="stroke: #000000; stroke-width: 0.6"/>
      </g>
     </g>
    </g>
    <g id="xtick_11">
     <g id="line2d_11">
      <g>
       <use xlink:href="#mbfeb66a2dd" x="122.698105" y="307.584" style="stroke: #000000; stroke-width: 0.6"/>
      </g>
     </g>
    </g>
    <g id="xtick_12">
     <g id="line2d_12">
      <g>
       <use xlink:href="#mbfeb66a2dd" x="130.563675" y="307.584" style="stroke: #000000; stroke-width: 0.6"/>
      </g>
     </g>
    </g>
    <g id="xtick_13">
     <g id="line2d_13">
      <g>
       <use xlink:href="#mbfeb66a2dd" x="136.990312" y="307.584" style="stroke: #000000; stroke-width: 0.6"/>
      </g>
     </g>
    </g>
    <g id="xtick_14">
     <g id="line2d_14">
      <g>
       <use xlink:href="#mbfeb66a2dd" x="142.423957" y="307.584" style="stroke: #000000; stroke-width: 0.6"/>
      </g>
     </g>
    </g>
    <g id="xtick_15">
     <g id="line2d_15">
      <g>
       <use xlink:href="#mbfeb66a2dd" x="147.130795" y="307.584" style="stroke: #000000; stroke-width: 0.6"/>
      </g>
     </g>
    </g>
    <g id="xtick_16">
     <g id="line2d_16">
      <g>
       <use xlink:href="#mbfeb66a2dd" x="151.282519" y="307.584" style="stroke: #000000; stroke-width: 0.6"/>
      </g>
     </g>
    </g>
    <g id="xtick_17">
     <g id="line2d_17">
      <g>
       <use xlink:href="#mbfeb66a2dd" x="179.429053" y="307.584" style="stroke: #000000; stroke-width: 0.6"/>
      </g>
     </g>
    </g>
    <g id="xtick_18">
     <g id="line2d_18">
      <g>
       <use xlink:href="#mbfeb66a2dd" x="193.72126" y="307.584" style="stroke: #000000; stroke-width: 0.6"/>
      </g>
     </g>
    </g>
    <g id="xtick_19">
     <g id="line2d_19">
      <g>
       <use xlink:href="#mbfeb66a2dd" x="203.861742" y="307.584" style="stroke: #000000; stroke-width: 0.6"/>
      </g>
     </g>
    </g>
    <g id="xtick_20">
     <g id="line2d_20">
      <g>
       <use xlink:href="#mbfeb66a2dd" x="211.727311" y="307.584" style="stroke: #000000; stroke-width: 0.6"/>
      </g>
     </g>
    </g>
    <g id="xtick_21">
     <g id="line2d_21">
      <g>
       <use xlink:href="#mbfeb66a2dd" x="218.153949" y="307.584" style="stroke: #000000; stroke-width: 0.6"/>
      </g>
     </g>
    </g>
    <g id="xtick_22">
     <g id="line2d_22">
      <g>
       <use xlink:href="#mbfeb66a2dd" x="223.587594" y="307.584" style="stroke: #000000; stroke-width: 0.6"/>
      </g>
     </g>
    </g>
    <g id="xtick_23">
     <g id="line2d_23">
      <g>
       <use xlink:href="#mbfeb66a2dd" x="228.294431" y="307.584" style="stroke: #000000; stroke-width: 0.6"/>
      </g>
     </g>
    </g>
    <g id="xtick_24">
     <g id="line2d_24">
      <g>
       <use xlink:href="#mbfeb66a2dd" x="232.446156" y="307.584" style="stroke: #000000; stroke-width: 0.6"/>
      </g>
     </g>
    </g>
    <g id="xtick_25">
     <g id="line2d_25">
      <g>
       <use xlink:href="#mbfeb66a2dd" x="260.592689" y="307.584" style="stroke: #000000; stroke-width: 0.6"/>
      </g>
     </g>
    </g>
    <g id="xtick_26">
     <g id="line2d_26">
      <g>
       <use xlink:href="#mbfeb66a2dd" x="274.884896" y="307.584" style="stroke: #000000; stroke-width: 0.6"/>
      </g>
     </g>
    </g>
    <g id="xtick_27">
     <g id="line2d_27">
      <g>
       <use xlink:href="#mbfeb66a2dd" x="285.025378" y="307.584" style="stroke: #000000; stroke-width: 0.6"/>
      </g>
     </g>
    </g>
    <g id="xtick_28">
     <g id="line2d_28">
      <g>
       <use xlink:href="#mbfeb66a2dd" x="292.890947" y="307.584" style="stroke: #000000; stroke-width: 0.6"/>
      </g>
     </g>
    </g>
    <g id="xtick_29">
     <g id="line2d_29">
      <g>
       <use xlink:href="#mbfeb66a2dd" x="299.317585" y="307.584" style="stroke: #000000; stroke-width: 0.6"/>
      </g>
     </g>
    </g>
    <g id="xtick_30">
     <g id="line2d_30">
      <g>
       <use xlink:href="#mbfeb66a2dd" x="304.75123" y="307.584" style="stroke: #000000; stroke-width: 0.6"/>
      </g>
     </g>
    </g>
    <g id="xtick_31">
     <g id="line2d_31">
      <g>
       <use xlink:href="#mbfeb66a2dd" x="309.458067" y="307.584" style="stroke: #000000; stroke-width: 0.6"/>
      </g>
     </g>
    </g>
    <g id="xtick_32">
     <g id="line2d_32">
      <g>
       <use xlink:href="#mbfeb66a2dd" x="313.609792" y="307.584" style="stroke: #000000; stroke-width: 0.6"/>
      </g>
     </g>
    </g>
    <g id="xtick_33">
     <g id="line2d_33">
      <g>
       <use xlink:href="#mbfeb66a2dd" x="341.756325" y="307.584" style="stroke: #000000; stroke-width: 0.6"/>
      </g>
     </g>
    </g>
    <g id="xtick_34">
     <g id="line2d_34">
      <g>
       <use xlink:href="#mbfeb66a2dd" x="356.048532" y="307.584" style="stroke: #000000; stroke-width: 0.6"/>
      </g>
     </g>
    </g>
    <g id="xtick_35">
     <g id="line2d_35">
      <g>
       <use xlink:href="#mbfeb66a2dd" x="366.189015" y="307.584" style="stroke: #000000; stroke-width: 0.6"/>
      </g>
     </g>
    </g>
    <g id="xtick_36">
     <g id="line2d_36">
      <g>
       <use xlink:href="#mbfeb66a2dd" x="374.054584" y="307.584" style="stroke: #000000; stroke-width: 0.6"/>
      </g>
     </g>
    </g>
    <g id="xtick_37">
     <g id="line2d_37">
      <g>
       <use xlink:href="#mbfeb66a2dd" x="380.481221" y="307.584" style="stroke: #000000; stroke-width: 0.6"/>
      </g>
     </g>
    </g>
    <g id="xtick_38">
     <g id="line2d_38">
      <g>
       <use xlink:href="#mbfeb66a2dd" x="385.914866" y="307.584" style="stroke: #000000; stroke-width: 0.6"/>
      </g>
     </g>
    </g>
    <g id="xtick_39">
     <g id="line2d_39">
      <g>
       <use xlink:href="#mbfeb66a2dd" x="390.621704" y="307.584" style="stroke: #000000; stroke-width: 0.6"/>
      </g>
     </g>
    </g>
    <g id="xtick_40">
     <g id="line2d_40">
      <g>
       <use xlink:href="#mbfeb66a2dd" x="394.773428" y="307.584" style="stroke: #000000; stroke-width: 0.6"/>
      </g>
     </g>
    </g>
    <g id="text_6">
     <!-- Frequency [Hz] -->
     <g transform="translate(198.455312 335.860562)scale(0.1 -0.1)">
      <defs>
       <path id="DejaVuSans-46" d="M 628 4666 
L 3309 4666 
L 3309 4134 
L 1259 4134 
L 1259 2759 
L 3109 2759 
L 3109 2228 
L 1259 2228 
L 1259 0 
L 628 0 
L 628 4666 
z
" transform="scale(0.015625)"/>
       <path id="DejaVuSans-72" d="M 2631 2963 
Q 2534 3019 2420 3045 
Q 2306 3072 2169 3072 
Q 1681 3072 1420 2755 
Q 1159 2438 1159 1844 
L 1159 0 
L 581 0 
L 581 3500 
L 1159 3500 
L 1159 2956 
Q 1341 3275 1631 3429 
Q 1922 3584 2338 3584 
Q 2397 3584 2469 3576 
Q 2541 3569 2628 3553 
L 2631 2963 
z
" transform="scale(0.015625)"/>
       <path id="DejaVuSans-65" d="M 3597 1894 
L 3597 1613 
L 953 1613 
Q 991 1019 1311 708 
Q 1631 397 2203 397 
Q 2534 397 2845 478 
Q 3156 559 3463 722 
L 3463 178 
Q 3153 47 2828 -22 
Q 2503 -91 2169 -91 
Q 1331 -91 842 396 
Q 353 884 353 1716 
Q 353 2575 817 3079 
Q 1281 3584 2069 3584 
Q 2775 3584 3186 3129 
Q 3597 2675 3597 1894 
z
M 3022 2063 
Q 3016 2534 2758 2815 
Q 2500 3097 2075 3097 
Q 1594 3097 1305 2825 
Q 1016 2553 972 2059 
L 3022 2063 
z
" transform="scale(0.015625)"/>
       <path id="DejaVuSans-71" d="M 947 1747 
Q 947 1113 1208 752 
Q 1469 391 1925 391 
Q 2381 391 2643 752 
Q 2906 1113 2906 1747 
Q 2906 2381 2643 2742 
Q 2381 3103 1925 3103 
Q 1469 3103 1208 2742 
Q 947 2381 947 1747 
z
M 2906 525 
Q 2725 213 2448 61 
Q 2172 -91 1784 -91 
Q 1150 -91 751 415 
Q 353 922 353 1747 
Q 353 2572 751 3078 
Q 1150 3584 1784 3584 
Q 2172 3584 2448 3432 
Q 2725 3281 2906 2969 
L 2906 3500 
L 3481 3500 
L 3481 -1331 
L 2906 -1331 
L 2906 525 
z
" transform="scale(0.015625)"/>
       <path id="DejaVuSans-75" d="M 544 1381 
L 544 3500 
L 1119 3500 
L 1119 1403 
Q 1119 906 1312 657 
Q 1506 409 1894 409 
Q 2359 409 2629 706 
Q 2900 1003 2900 1516 
L 2900 3500 
L 3475 3500 
L 3475 0 
L 2900 0 
L 2900 538 
Q 2691 219 2414 64 
Q 2138 -91 1772 -91 
Q 1169 -91 856 284 
Q 544 659 544 1381 
z
M 1991 3584 
L 1991 3584 
z
" transform="scale(0.015625)"/>
       <path id="DejaVuSans-6e" d="M 3513 2113 
L 3513 0 
L 2938 0 
L 2938 2094 
Q 2938 2591 2744 2837 
Q 2550 3084 2163 3084 
Q 1697 3084 1428 2787 
Q 1159 2491 1159 1978 
L 1159 0 
L 581 0 
L 581 3500 
L 1159 3500 
L 1159 2956 
Q 1366 3272 1645 3428 
Q 1925 3584 2291 3584 
Q 2894 3584 3203 3211 
Q 3513 2838 3513 2113 
z
" transform="scale(0.015625)"/>
       <path id="DejaVuSans-63" d="M 3122 3366 
L 3122 2828 
Q 2878 2963 2633 3030 
Q 2388 3097 2138 3097 
Q 1578 3097 1268 2742 
Q 959 2388 959 1747 
Q 959 1106 1268 751 
Q 1578 397 2138 397 
Q 2388 397 2633 464 
Q 2878 531 3122 666 
L 3122 134 
Q 2881 22 2623 -34 
Q 2366 -91 2075 -91 
Q 1284 -91 818 406 
Q 353 903 353 1747 
Q 353 2603 823 3093 
Q 1294 3584 2113 3584 
Q 2378 3584 2631 3529 
Q 2884 3475 3122 3366 
z
" transform="scale(0.015625)"/>
       <path id="DejaVuSans-79" d="M 2059 -325 
Q 1816 -950 1584 -1140 
Q 1353 -1331 966 -1331 
L 506 -1331 
L 506 -850 
L 844 -850 
Q 1081 -850 1212 -737 
Q 1344 -625 1503 -206 
L 1606 56 
L 191 3500 
L 800 3500 
L 1894 763 
L 2988 3500 
L 3597 3500 
L 2059 -325 
z
" transform="scale(0.015625)"/>
       <path id="DejaVuSans-20" transform="scale(0.015625)"/>
       <path id="DejaVuSans-5b" d="M 550 4863 
L 1875 4863 
L 1875 4416 
L 1125 4416 
L 1125 -397 
L 1875 -397 
L 1875 -844 
L 550 -844 
L 550 4863 
z
" transform="scale(0.015625)"/>
       <path id="DejaVuSans-48" d="M 628 4666 
L 1259 4666 
L 1259 2753 
L 3553 2753 
L 3553 4666 
L 4184 4666 
L 4184 0 
L 3553 0 
L 3553 2222 
L 1259 2222 
L 1259 0 
L 628 0 
L 628 4666 
z
" transform="scale(0.015625)"/>
       <path id="DejaVuSans-7a" d="M 353 3500 
L 3084 3500 
L 3084 2975 
L 922 459 
L 3084 459 
L 3084 0 
L 275 0 
L 275 525 
L 2438 3041 
L 353 3041 
L 353 3500 
z
" transform="scale(0.015625)"/>
       <path id="DejaVuSans-5d" d="M 1947 4863 
L 1947 -844 
L 622 -844 
L 622 -397 
L 1369 -397 
L 1369 4416 
L 622 4416 
L 622 4863 
L 1947 4863 
z
" transform="scale(0.015625)"/>
      </defs>
      <use xlink:href="#DejaVuSans-46"/>
      <use xlink:href="#DejaVuSans-72" x="50.269531"/>
      <use xlink:href="#DejaVuSans-65" x="89.132812"/>
      <use xlink:href="#DejaVuSans-71" x="150.65625"/>
      <use xlink:href="#DejaVuSans-75" x="214.132812"/>
      <use xlink:href="#DejaVuSans-65" x="277.511719"/>
      <use xlink:href="#DejaVuSans-6e" x="339.035156"/>
      <use xlink:href="#DejaVuSans-63" x="402.414062"/>
      <use xlink:href="#DejaVuSans-79" x="457.394531"/>
      <use xlink:href="#DejaVuSans-20" x="516.574219"/>
      <use xlink:href="#DejaVuSans-5b" x="548.361328"/>
      <use xlink:href="#DejaVuSans-48" x="587.375"/>
      <use xlink:href="#DejaVuSans-7a" x="662.570312"/>
      <use xlink:href="#DejaVuSans-5d" x="715.060547"/>
     </g>
    </g>
   </g>
   <g id="matplotlib.axis_2">
    <g id="ytick_1">
     <g id="line2d_41">
      <defs>
       <path id="md18e14b669" d="M 0 0 
L -3.5 0 
" style="stroke: #000000; stroke-width: 0.8"/>
      </defs>
      <g>
       <use xlink:href="#md18e14b669" x="57.6" y="307.584" style="stroke: #000000; stroke-width: 0.8"/>
      </g>
     </g>
     <g id="text_7">
      <!-- −140 -->
      <g transform="translate(23.132812 311.383219)scale(0.1 -0.1)">
       <defs>
        <path id="DejaVuSans-2212" d="M 678 2272 
L 4684 2272 
L 4684 1741 
L 678 1741 
L 678 2272 
z
" transform="scale(0.015625)"/>
       </defs>
       <use xlink:href="#DejaVuSans-2212"/>
       <use xlink:href="#DejaVuSans-31" x="83.789062"/>
       <use xlink:href="#DejaVuSans-34" x="147.412109"/>
       <use xlink:href="#DejaVuSans-30" x="211.035156"/>
      </g>
     </g>
    </g>
    <g id="ytick_2">
     <g id="line2d_42">
      <g>
       <use xlink:href="#md18e14b669" x="57.6" y="254.3616" style="stroke: #000000; stroke-width: 0.8"/>
      </g>
     </g>
     <g id="text_8">
      <!-- −120 -->
      <g transform="translate(23.132812 258.160819)scale(0.1 -0.1)">
       <defs>
        <path id="DejaVuSans-32" d="M 1228 531 
L 3431 531 
L 3431 0 
L 469 0 
L 469 531 
Q 828 903 1448 1529 
Q 2069 2156 2228 2338 
Q 2531 2678 2651 2914 
Q 2772 3150 2772 3378 
Q 2772 3750 2511 3984 
Q 2250 4219 1831 4219 
Q 1534 4219 1204 4116 
Q 875 4013 500 3803 
L 500 4441 
Q 881 4594 1212 4672 
Q 1544 4750 1819 4750 
Q 2544 4750 2975 4387 
Q 3406 4025 3406 3419 
Q 3406 3131 3298 2873 
Q 3191 2616 2906 2266 
Q 2828 2175 2409 1742 
Q 1991 1309 1228 531 
z
" transform="scale(0.015625)"/>
       </defs>
       <use xlink:href="#DejaVuSans-2212"/>
       <use xlink:href="#DejaVuSans-31" x="83.789062"/>
       <use xlink:href="#DejaVuSans-32" x="147.412109"/>
       <use xlink:href="#DejaVuSans-30" x="211.035156"/>
      </g>
     </g>
    </g>
    <g id="ytick_3">
     <g id="line2d_43">
      <g>
       <use xlink:href="#md18e14b669" x="57.6" y="201.1392" style="stroke: #000000; stroke-width: 0.8"/>
      </g>
     </g>
     <g id="text_9">
      <!-- −100 -->
      <g transform="translate(23.132812 204.938419)scale(0.1 -0.1)">
       <use xlink:href="#DejaVuSans-2212"/>
       <use xlink:href="#DejaVuSans-31" x="83.789062"/>
       <use xlink:href="#DejaVuSans-30" x="147.412109"/>
       <use xlink:href="#DejaVuSans-30" x="211.035156"/>
      </g>
     </g>
    </g>
    <g id="ytick_4">
     <g id="line2d_44">
      <g>
       <use xlink:href="#md18e14b669" x="57.6" y="147.9168" style="stroke: #000000; stroke-width: 0.8"/>
      </g>
     </g>
     <g id="text_10">
      <!-- −80 -->
      <g transform="translate(29.495313 151.716019)scale(0.1 -0.1)">
       <defs>
        <path id="DejaVuSans-38" d="M 2034 2216 
Q 1584 2216 1326 1975 
Q 1069 1734 1069 1313 
Q 1069 891 1326 650 
Q 1584 409 2034 409 
Q 2484 409 2743 651 
Q 3003 894 3003 1313 
Q 3003 1734 2745 1975 
Q 2488 2216 2034 2216 
z
M 1403 2484 
Q 997 2584 770 2862 
Q 544 3141 544 3541 
Q 544 4100 942 4425 
Q 1341 4750 2034 4750 
Q 2731 4750 3128 4425 
Q 3525 4100 3525 3541 
Q 3525 3141 3298 2862 
Q 3072 2584 2669 2484 
Q 3125 2378 3379 2068 
Q 3634 1759 3634 1313 
Q 3634 634 3220 271 
Q 2806 -91 2034 -91 
Q 1263 -91 848 271 
Q 434 634 434 1313 
Q 434 1759 690 2068 
Q 947 2378 1403 2484 
z
M 1172 3481 
Q 1172 3119 1398 2916 
Q 1625 2713 2034 2713 
Q 2441 2713 2670 2916 
Q 2900 3119 2900 3481 
Q 2900 3844 2670 4047 
Q 2441 4250 2034 4250 
Q 1625 4250 1398 4047 
Q 1172 3844 1172 3481 
z
" transform="scale(0.015625)"/>
       </defs>
       <use xlink:href="#DejaVuSans-2212"/>
       <use xlink:href="#DejaVuSans-38" x="83.789062"/>
       <use xlink:href="#DejaVuSans-30" x="147.412109"/>
      </g>
     </g>
    </g>
    <g id="ytick_5">
     <g id="line2d_45">
      <g>
       <use xlink:href="#md18e14b669" x="57.6" y="94.6944" style="stroke: #000000; stroke-width: 0.8"/>
      </g>
     </g>
     <g id="text_11">
      <!-- −60 -->
      <g transform="translate(29.495313 98.493619)scale(0.1 -0.1)">
       <use xlink:href="#DejaVuSans-2212"/>
       <use xlink:href="#DejaVuSans-36" x="83.789062"/>
       <use xlink:href="#DejaVuSans-30" x="147.412109"/>
      </g>
     </g>
    </g>
    <g id="ytick_6">
     <g id="line2d_46">
      <g>
       <use xlink:href="#md18e14b669" x="57.6" y="41.472" style="stroke: #000000; stroke-width: 0.8"/>
      </g>
     </g>
     <g id="text_12">
      <!-- −40 -->
      <g transform="translate(29.495313 45.271219)scale(0.1 -0.1)">
       <use xlink:href="#DejaVuSans-2212"/>
       <use xlink:href="#DejaVuSans-34" x="83.789062"/>
       <use xlink:href="#DejaVuSans-30" x="147.412109"/>
      </g>
     </g>
    </g>
    <g id="text_13">
     <!-- Phase noise [dBc/Hz] -->
     <g transform="translate(17.053125 227.257688)rotate(-90)scale(0.1 -0.1)">
      <defs>
       <path id="DejaVuSans-50" d="M 1259 4147 
L 1259 2394 
L 2053 2394 
Q 2494 2394 2734 2622 
Q 2975 2850 2975 3272 
Q 2975 3691 2734 3919 
Q 2494 4147 2053 4147 
L 1259 4147 
z
M 628 4666 
L 2053 4666 
Q 2838 4666 3239 4311 
Q 3641 3956 3641 3272 
Q 3641 2581 3239 2228 
Q 2838 1875 2053 1875 
L 1259 1875 
L 1259 0 
L 628 0 
L 628 4666 
z
" transform="scale(0.015625)"/>
       <path id="DejaVuSans-68" d="M 3513 2113 
L 3513 0 
L 2938 0 
L 2938 2094 
Q 2938 2591 2744 2837 
Q 2550 3084 2163 3084 
Q 1697 3084 1428 2787 
Q 1159 2491 1159 1978 
L 1159 0 
L 581 0 
L 581 4863 
L 1159 4863 
L 1159 2956 
Q 1366 3272 1645 3428 
Q 1925 3584 2291 3584 
Q 2894 3584 3203 3211 
Q 3513 2838 3513 2113 
z
" transform="scale(0.015625)"/>
       <path id="DejaVuSans-61" d="M 2194 1759 
Q 1497 1759 1228 1600 
Q 959 1441 959 1056 
Q 959 750 1161 570 
Q 1363 391 1709 391 
Q 2188 391 2477 730 
Q 2766 1069 2766 1631 
L 2766 1759 
L 2194 1759 
z
M 3341 1997 
L 3341 0 
L 2766 0 
L 2766 531 
Q 2569 213 2275 61 
Q 1981 -91 1556 -91 
Q 1019 -91 701 211 
Q 384 513 384 1019 
Q 384 1609 779 1909 
Q 1175 2209 1959 2209 
L 2766 2209 
L 2766 2266 
Q 2766 2663 2505 2880 
Q 2244 3097 1772 3097 
Q 1472 3097 1187 3025 
Q 903 2953 641 2809 
L 641 3341 
Q 956 3463 1253 3523 
Q 1550 3584 1831 3584 
Q 2591 3584 2966 3190 
Q 3341 2797 3341 1997 
z
" transform="scale(0.015625)"/>
       <path id="DejaVuSans-73" d="M 2834 3397 
L 2834 2853 
Q 2591 2978 2328 3040 
Q 2066 3103 1784 3103 
Q 1356 3103 1142 2972 
Q 928 2841 928 2578 
Q 928 2378 1081 2264 
Q 1234 2150 1697 2047 
L 1894 2003 
Q 2506 1872 2764 1633 
Q 3022 1394 3022 966 
Q 3022 478 2636 193 
Q 2250 -91 1575 -91 
Q 1294 -91 989 -36 
Q 684 19 347 128 
L 347 722 
Q 666 556 975 473 
Q 1284 391 1588 391 
Q 1994 391 2212 530 
Q 2431 669 2431 922 
Q 2431 1156 2273 1281 
Q 2116 1406 1581 1522 
L 1381 1569 
Q 847 1681 609 1914 
Q 372 2147 372 2553 
Q 372 3047 722 3315 
Q 1072 3584 1716 3584 
Q 2034 3584 2315 3537 
Q 2597 3491 2834 3397 
z
" transform="scale(0.015625)"/>
       <path id="DejaVuSans-6f" d="M 1959 3097 
Q 1497 3097 1228 2736 
Q 959 2375 959 1747 
Q 959 1119 1226 758 
Q 1494 397 1959 397 
Q 2419 397 2687 759 
Q 2956 1122 2956 1747 
Q 2956 2369 2687 2733 
Q 2419 3097 1959 3097 
z
M 1959 3584 
Q 2709 3584 3137 3096 
Q 3566 2609 3566 1747 
Q 3566 888 3137 398 
Q 2709 -91 1959 -91 
Q 1206 -91 779 398 
Q 353 888 353 1747 
Q 353 2609 779 3096 
Q 1206 3584 1959 3584 
z
" transform="scale(0.015625)"/>
       <path id="DejaVuSans-69" d="M 603 3500 
L 1178 3500 
L 1178 0 
L 603 0 
L 603 3500 
z
M 603 4863 
L 1178 4863 
L 1178 4134 
L 603 4134 
L 603 4863 
z
" transform="scale(0.015625)"/>
       <path id="DejaVuSans-64" d="M 2906 2969 
L 2906 4863 
L 3481 4863 
L 3481 0 
L 2906 0 
L 2906 525 
Q 2725 213 2448 61 
Q 2172 -91 1784 -91 
Q 1150 -91 751 415 
Q 353 922 353 1747 
Q 353 2572 751 3078 
Q 1150 3584 1784 3584 
Q 2172 3584 2448 3432 
Q 2725 3281 2906 2969 
z
M 947 1747 
Q 947 1113 1208 752 
Q 1469 391 1925 391 
Q 2381 391 2643 752 
Q 2906 1113 2906 1747 
Q 2906 2381 2643 2742 
Q 2381 3103 1925 3103 
Q 1469 3103 1208 2742 
Q 947 2381 947 1747 
z
" transform="scale(0.015625)"/>
       <path id="DejaVuSans-42" d="M 1259 2228 
L 1259 519 
L 2272 519 
Q 2781 519 3026 730 
Q 3272 941 3272 1375 
Q 3272 1813 3026 2020 
Q 2781 2228 2272 2228 
L 1259 2228 
z
M 1259 4147 
L 1259 2741 
L 2194 2741 
Q 2656 2741 2882 2914 
Q 3109 3088 3109 3444 
Q 3109 3797 2882 3972 
Q 2656 4147 2194 4147 
L 1259 4147 
z
M 628 4666 
L 2241 4666 
Q 2963 4666 3353 4366 
Q 3744 4066 3744 3513 
Q 3744 3084 3544 2831 
Q 3344 2578 2956 2516 
Q 3422 2416 3680 2098 
Q 3938 1781 3938 1306 
Q 3938 681 3513 340 
Q 3088 0 2303 0 
L 628 0 
L 628 4666 
z
" transform="scale(0.015625)"/>
       <path id="DejaVuSans-2f" d="M 1625 4666 
L 2156 4666 
L 531 -594 
L 0 -594 
L 1625 4666 
z
" transform="scale(0.015625)"/>
      </defs>
      <use xlink:href="#DejaVuSans-50"/>
      <use xlink:href="#DejaVuSans-68" x="60.302734"/>
      <use xlink:href="#DejaVuSans-61" x="123.681641"/>
      <use xlink:href="#DejaVuSans-73" x="184.960938"/>
      <use xlink:href="#DejaVuSans-65" x="237.060547"/>
      <use xlink:href="#DejaVuSans-20" x="298.583984"/>
      <use xlink:href="#DejaVuSans-6e" x="330.371094"/>
      <use xlink:href="#DejaVuSans-6f" x="393.75"/>
      <use xlink:href="#DejaVuSans-69" x="454.931641"/>
      <use xlink:href="#DejaVuSans-73" x="482.714844"/>
      <use xlink:href="#DejaVuSans-65" x="534.814453"/>
      <use xlink:href="#DejaVuSans-20" x="596.337891"/>
      <use xlink:href="#DejaVuSans-5b" x="628.125"/>
      <use xlink:href="#DejaVuSans-64" x="667.138672"/>
      <use xlink:href="#DejaVuSans-42" x="730.615234"/>
      <use xlink:href="#DejaVuSans-63" x="799.21875"/>
      <use xlink:href="#DejaVuSans-2f" x="854.199219"/>
      <use xlink:href="#DejaVuSans-48" x="887.890625"/>
      <use xlink:href="#DejaVuSans-7a" x="963.085938"/>
      <use xlink:href="#DejaVuSans-5d" x="1015.576172"/>
     </g>
    </g>
   </g>
   <g id="line2d_47">
    <path d="M 398.487273 295.846332 
L 398.133009 296.11067 
L 397.775149 295.657392 
L 397.413619 295.533207 
L 397.048342 294.156521 
L 396.67924 294.457227 
L 396.306232 293.567526 
L 395.929234 294.344573 
L 395.548161 293.721871 
L 395.162923 294.515772 
L 394.773428 294.810269 
L 394.379582 295.995355 
L 393.981285 296.570157 
L 393.578435 296.91078 
L 393.170929 297.050932 
L 392.341504 296.885943 
L 391.492092 297.640814 
L 391.059584 297.029643 
L 390.178315 294.262966 
L 389.729278 294.226597 
L 389.274447 294.671891 
L 388.81367 295.694648 
L 388.346791 296.392749 
L 387.873644 295.952777 
L 387.394059 295.848106 
L 386.907859 295.564253 
L 386.414859 294.981468 
L 385.914866 294.059833 
L 385.407679 294.563672 
L 384.893087 295.264434 
L 384.370871 295.714163 
L 383.840802 295.543851 
L 383.30264 296.045916 
L 382.756135 295.000983 
L 382.201022 293.426487 
L 381.637027 292.642343 
L 381.063862 292.220999 
L 380.481221 293.228677 
L 379.286228 294.302882 
L 378.673188 293.627845 
L 378.049297 294.998322 
L 377.414164 297.15649 
L 376.767377 297.434134 
L 376.1085 295.546512 
L 375.437071 294.120152 
L 374.752605 293.111588 
L 374.054584 293.112475 
L 373.34246 293.940083 
L 372.615652 295.291932 
L 371.873543 295.027594 
L 371.115472 294.23458 
L 370.340739 293.71034 
L 369.548595 294.468759 
L 368.73824 294.765917 
L 367.908815 295.725694 
L 367.059402 295.370878 
L 366.189015 294.835993 
L 365.296589 292.588234 
L 364.380981 292.738144 
L 363.440954 293.579058 
L 362.47517 294.799625 
L 361.482177 294.524642 
L 360.460398 292.849911 
L 359.408113 292.560736 
L 358.323446 292.060445 
L 357.204338 293.342218 
L 356.048532 293.478822 
L 354.853539 292.86499 
L 352.334688 288.897261 
L 351.004382 289.138535 
L 349.621895 289.684065 
L 348.182963 290.624327 
L 346.682783 290.356441 
L 345.115906 289.31683 
L 343.476126 288.672839 
L 341.756325 288.866214 
L 338.042481 288.470594 
L 336.027709 286.359439 
L 333.890756 286.151872 
L 331.615843 284.628824 
L 329.183919 283.81186 
L 326.571693 282.268411 
L 323.455302 281.423062 
L 323.157841 280.818987 
L 322.857849 280.505862 
L 322.555281 279.841469 
L 322.219429 279.379321 
L 322.096504 278.961526 
L 322.065705 279.067083 
L 322.034879 279.172641 
L 322.004027 279.023618 
L 321.942241 278.514457 
L 321.849358 278.575663 
L 321.349808 280.08984 
L 321.097353 278.431963 
L 320.938645 277.994652 
L 320.747248 277.034875 
L 320.651158 277.144868 
L 320.61907 277.108499 
L 320.586952 277.07213 
L 320.554806 277.129788 
L 320.490424 277.245103 
L 320.425925 277.147529 
L 320.134208 276.52394 
L 320.069053 276.518617 
L 319.971094 277.04818 
L 319.93838 276.905367 
L 319.807221 275.90656 
L 319.576512 274.7197 
L 319.344283 274.461572 
L 319.177463 274.786228 
L 319.144005 274.66293 
L 318.976232 274.138689 
L 318.908899 274.184815 
L 318.638272 273.50623 
L 318.46807 272.236875 
L 318.43393 272.34332 
L 318.262736 273.146978 
L 318.159618 273.093756 
L 317.987083 273.123028 
L 317.778919 274.039341 
L 317.744106 273.800727 
L 317.569519 273.27826 
L 317.394064 273.01747 
L 317.28837 271.286855 
L 316.93375 273.320838 
L 316.213624 275.714959 
L 315.847968 274.587531 
L 315.478479 274.350692 
L 315.105076 275.440864 
L 314.727675 275.43909 
L 314.34619 274.163526 
L 313.96053 272.41517 
L 313.570605 273.180686 
L 312.37426 276.337661 
L 311.966282 276.884078 
L 311.553526 275.822291 
L 310.713226 271.08461 
L 309.852404 271.239842 
L 309.413979 272.440007 
L 308.970032 271.74989 
L 308.520422 272.895059 
L 308.065003 270.675685 
L 307.603623 269.440038 
L 307.136124 267.272112 
L 306.662341 266.47555 
L 306.182103 266.243146 
L 305.695232 265.284256 
L 305.201542 266.146459 
L 304.700838 264.667763 
L 304.19292 264.850493 
L 303.677576 262.201792 
L 303.154585 262.90344 
L 302.623718 262.206227 
L 302.084733 264.091187 
L 301.537379 263.268014 
L 300.981391 261.480628 
L 299.842393 256.507882 
L 299.258788 256.828103 
L 298.665358 257.62023 
L 298.061766 259.386327 
L 297.447657 259.552203 
L 296.82266 258.658954 
L 296.186381 257.488948 
L 295.538405 257.942226 
L 294.878293 257.048089 
L 294.205583 257.05696 
L 293.519785 253.648065 
L 292.820379 253.251558 
L 292.106814 251.61763 
L 291.378504 251.16524 
L 290.634829 249.248347 
L 289.875124 248.038424 
L 289.098685 249.150772 
L 288.304757 247.821986 
L 287.492534 248.410094 
L 286.661153 245.436736 
L 285.809688 244.406882 
L 284.937146 242.277099 
L 284.042455 241.628673 
L 283.124462 242.316129 
L 282.181922 240.67067 
L 280.217686 239.48381 
L 279.192936 238.390977 
L 278.1375 236.53795 
L 275.926812 234.266241 
L 274.767203 233.521127 
L 273.568145 228.960855 
L 271.040258 224.336715 
L 269.704912 223.207513 
L 268.31698 221.296829 
L 266.87215 219.090761 
L 265.365556 217.915433 
L 263.791682 217.575696 
L 262.144237 217.773506 
L 260.416002 217.443527 
L 259.880566 215.939995 
L 259.33687 212.032583 
L 259.153758 212.101773 
L 258.96969 212.732458 
L 258.784656 212.882368 
L 258.223653 211.526084 
L 257.653577 206.502776 
L 257.26834 207.24789 
L 257.07413 207.356996 
L 256.878845 207.068708 
L 256.682471 207.014598 
L 256.286412 205.451634 
L 256.086701 205.138509 
L 255.480687 206.655347 
L 254.864072 203.44781 
L 254.446921 203.724567 
L 253.811788 201.5868 
L 253.381918 201.511402 
L 252.94674 199.65394 
L 252.506123 197.517948 
L 252.059928 197.400859 
L 251.834695 197.450533 
L 251.379864 195.780237 
L 250.919087 194.177355 
L 250.68642 193.877536 
L 250.452207 193.96003 
L 250.287327 192.453837 
L 250.169082 192.884938 
L 249.883664 193.997286 
L 249.764054 193.220239 
L 249.740083 193.312491 
L 249.595916 194.206628 
L 249.52361 193.712546 
L 249.354318 193.393212 
L 249.3058 193.528042 
L 249.111054 194.500238 
L 248.964285 193.915678 
L 248.816902 192.903566 
L 248.718304 193.187419 
L 248.569887 194.367182 
L 248.445727 194.19687 
L 248.020283 190.473963 
L 247.995096 190.483721 
L 247.969891 190.493478 
L 247.792951 191.715819 
L 247.691442 191.586311 
L 247.666019 191.586311 
L 247.256738 194.207515 
L 247.205243 194.644825 
L 247.127857 194.562331 
L 247.102025 194.573862 
L 246.998503 193.313378 
L 246.894677 191.586311 
L 246.842649 191.596956 
L 246.686103 191.690095 
L 246.633766 191.6076 
L 246.528859 191.330844 
L 246.476288 191.415113 
L 246.397284 191.871938 
L 246.265216 192.724384 
L 246.132651 192.041363 
L 246.106078 192.10523 
L 245.839242 192.995818 
L 245.731939 194.018575 
L 245.678165 193.709885 
L 245.272223 189.558538 
L 245.135863 187.815504 
L 245.081171 187.881145 
L 244.861551 188.947367 
L 244.806431 188.709641 
L 244.751226 188.753993 
L 244.501724 189.476043 
L 244.418163 189.589584 
L 244.390265 189.560312 
L 244.138186 189.316376 
L 244.053757 189.452093 
L 244.025569 189.389113 
L 243.997359 189.326134 
L 243.855967 188.392967 
L 243.82762 188.50296 
L 243.770859 188.63779 
L 243.742444 188.552635 
L 243.628554 187.968962 
L 243.485672 187.350695 
L 243.457026 187.375533 
L 243.399664 187.555602 
L 243.024518 190.146646 
L 242.879162 190.700158 
L 242.703939 190.052619 
L 242.67465 190.104955 
L 242.586638 190.093423 
L 242.468945 188.243945 
L 242.350858 186.703156 
L 242.291666 186.708478 
L 242.024064 187.579552 
L 241.93441 187.836793 
L 241.904475 187.725026 
L 241.784479 186.979913 
L 241.452366 184.533456 
L 241.361245 184.434108 
L 241.330818 184.465154 
L 241.117095 184.744572 
L 241.086457 184.590227 
L 241.025102 184.292182 
L 240.932867 184.377337 
L 240.840391 184.678931 
L 240.809511 184.569825 
L 240.592594 183.853097 
L 240.499219 184.257587 
L 240.374334 184.901578 
L 240.343043 184.55031 
L 240.217602 183.553277 
L 240.186172 183.671254 
L 240.06017 184.278876 
L 239.997 184.199042 
L 239.838578 183.351032 
L 239.615583 181.742829 
L 239.551611 181.573404 
L 239.455434 181.300196 
L 239.294553 182.024907 
L 238.807457 179.813517 
L 238.643585 179.7257 
L 238.478947 180.244618 
L 238.445927 180.136399 
L 238.313536 179.579338 
L 238.247154 179.61482 
L 238.08065 180.337757 
L 238.047254 180.201153 
L 237.6778 178.402236 
L 237.508578 176.840158 
L 237.099099 174.858511 
L 237.030388 174.896654 
L 236.995982 174.922378 
L 236.788838 174.312982 
L 236.754195 174.312982 
L 236.510738 175.37743 
L 236.475821 175.231955 
L 236.230427 174.206537 
L 236.124733 176.751898 
L 235.769757 177.072119 
L 235.41117 176.246285 
L 234.682862 173.077778 
L 234.312986 173.649032 
L 233.939188 173.792733 
L 233.179485 171.192818 
L 232.403047 171.509492 
L 232.008319 169.980235 
L 231.609121 166.600612 
L 230.383661 168.759668 
L 229.54236 165.311743 
L 229.114058 165.762359 
L 228.680488 165.372062 
L 228.241518 165.160059 
L 227.797012 165.224813 
L 227.346829 164.325355 
L 226.890823 165.899851 
L 226.428839 162.608932 
L 225.960721 162.075821 
L 225.486301 159.936281 
L 225.005409 162.110416 
L 224.517866 160.414395 
L 224.023485 159.442199 
L 223.522071 157.877461 
L 223.013421 155.665183 
L 222.497323 155.022079 
L 221.973557 154.952003 
L 221.441891 156.800594 
L 220.353878 152.525949 
L 219.797013 152.381361 
L 219.23121 152.806253 
L 218.656176 154.308899 
L 218.071605 152.592477 
L 217.477176 152.826655 
L 216.872551 150.931051 
L 216.257373 151.232644 
L 215.631268 150.858313 
L 214.99384 151.977758 
L 214.344673 151.386102 
L 213.683325 149.635972 
L 213.009332 146.519801 
L 211.621405 142.694884 
L 211.549916 143.314038 
L 211.262499 148.343555 
L 211.190277 148.286784 
L 210.972719 149.874586 
L 210.826931 149.325508 
L 210.607112 146.696322 
L 210.459801 147.100812 
L 210.311871 148.62386 
L 210.237673 148.52185 
L 210.088806 143.174773 
L 210.014137 144.099069 
L 209.864321 149.077137 
L 209.562765 139.770313 
L 209.486972 140.876452 
L 209.334894 145.681548 
L 209.258608 145.151985 
L 209.182157 143.681273 
L 208.951803 146.890583 
L 208.719934 143.868438 
L 208.564503 145.052637 
L 208.48653 143.942062 
L 208.330064 140.881774 
L 208.172901 146.583668 
L 208.094055 146.448838 
L 207.935834 144.994092 
L 207.856456 146.620036 
L 207.776898 146.544638 
L 207.376397 139.754347 
L 207.295747 139.576052 
L 207.214913 140.521636 
L 207.133893 140.024007 
L 206.88971 143.568619 
L 206.807938 143.537572 
L 206.396209 141.652612 
L 206.230161 142.993817 
L 205.979613 139.560085 
L 205.727272 140.714124 
L 205.558035 141.869937 
L 205.387982 138.62071 
L 205.217105 140.215607 
L 204.959225 137.37087 
L 204.525188 142.269105 
L 204.437736 141.776798 
L 204.174069 136.965493 
L 203.99719 138.153239 
L 203.819418 141.285378 
L 203.551067 136.215944 
L 203.461161 137.10121 
L 203.280659 138.660626 
L 203.008159 136.31618 
L 202.733537 140.84718 
L 202.641519 140.767346 
L 202.364013 135.699687 
L 202.084306 139.374694 
L 201.990575 138.690786 
L 201.802362 136.961058 
L 201.707877 136.961058 
L 201.613138 138.84247 
L 201.327384 136.59471 
L 201.135586 138.302262 
L 200.942739 135.487684 
L 200.845919 135.834517 
L 200.651476 139.658546 
L 200.455955 137.126934 
L 200.357786 134.113659 
L 200.259343 134.457831 
L 200.061628 136.760587 
L 199.862798 136.700268 
L 199.66284 139.628387 
L 199.562434 139.33389 
L 199.36076 134.546535 
L 199.259489 133.906092 
L 199.157926 134.704428 
L 199.056069 134.579355 
L 198.851469 133.106869 
L 198.748721 133.376529 
L 198.43867 138.861097 
L 198.334711 138.767071 
L 197.915779 132.538276 
L 197.704432 130.181411 
L 197.598281 131.051597 
L 197.277896 136.37295 
L 197.170451 136.038536 
L 196.954573 133.338386 
L 196.628257 135.527601 
L 196.409022 133.050985 
L 196.298891 131.805581 
L 196.188415 133.212427 
L 196.077592 132.945428 
L 195.966419 133.41822 
L 195.743016 129.98981 
L 195.630781 129.697087 
L 195.405234 135.270359 
L 195.291916 134.795793 
L 195.064183 131.950169 
L 194.834969 133.213314 
L 194.604255 133.598289 
L 194.37202 132.690847 
L 194.138246 129.84611 
L 193.90291 129.713054 
L 193.627137 131.896946 
L 193.497307 134.283084 
L 193.588238 131.810016 
L 193.484297 133.704734 
L 193.393097 129.880704 
L 193.353939 130.175202 
L 193.249304 134.64677 
L 193.170623 132.912607 
L 192.999543 123.484259 
L 192.973149 124.30211 
L 192.946736 124.021805 
L 192.933522 124.905297 
L 192.840883 128.075578 
L 192.801106 127.564643 
L 192.748001 128.742632 
L 192.641548 130.552194 
L 192.614885 130.442201 
L 192.601546 130.403171 
L 192.588202 130.419138 
L 192.44108 126.134734 
L 192.414265 126.815981 
L 192.306798 131.243198 
L 192.239465 129.697974 
L 192.225983 129.147122 
L 192.185506 130.513164 
L 192.158495 130.014647 
L 192.077339 131.480038 
L 192.03669 131.268922 
L 191.995995 130.01997 
L 191.928065 126.933958 
L 191.860004 127.955828 
L 191.832742 130.6613 
L 191.737161 129.287275 
L 191.655028 130.92475 
L 191.627607 129.297032 
L 191.613889 129.309451 
L 191.600166 130.512277 
L 191.558963 127.45465 
L 191.531468 127.523839 
L 191.503951 126.080625 
L 191.435065 127.97002 
L 191.338398 131.838402 
L 191.296888 129.991584 
L 191.074672 126.955246 
L 191.060737 127.690603 
L 190.963036 129.613705 
L 191.004941 127.465294 
L 190.921082 129.569353 
L 190.780871 133.850208 
L 190.893084 129.497503 
L 190.710556 132.038873 
L 190.6401 129.963199 
L 190.583634 130.793469 
L 190.541225 133.273632 
L 190.456254 131.587369 
L 190.328412 126.564062 
L 190.314178 127.677297 
L 190.257187 130.719844 
L 190.185819 130.086498 
L 190.157231 131.124334 
L 190.114305 129.530324 
L 189.999581 125.711616 
L 189.956463 126.525919 
L 189.870069 125.115526 
L 189.855649 126.816868 
L 189.711127 130.988617 
L 189.667655 129.855867 
L 189.609608 130.554855 
L 189.580548 132.566662 
L 189.536915 129.874495 
L 189.507795 130.885721 
L 189.420293 130.153026 
L 189.449484 131.918235 
L 189.405688 130.791694 
L 189.37646 131.786953 
L 189.347208 129.918847 
L 189.28863 125.038353 
L 189.215271 127.203618 
L 189.185885 128.724891 
L 189.156474 125.883702 
L 189.127039 126.24384 
L 189.08284 125.600736 
L 189.023821 126.301498 
L 188.994274 127.50255 
L 188.935107 125.432199 
L 188.831325 122.281433 
L 188.816474 123.838188 
L 188.801616 125.394943 
L 188.757007 121.656957 
L 188.727236 122.979533 
L 188.69744 122.002015 
L 188.667618 123.061141 
L 188.622839 122.825188 
L 188.6079 123.839962 
L 188.563044 119.880215 
L 188.533109 119.559107 
L 188.503148 119.834089 
L 188.398084 124.269289 
L 188.368008 122.747129 
L 188.35296 122.582139 
L 188.322846 123.187988 
L 188.307779 122.601654 
L 188.171887 127.795273 
L 188.126473 125.890798 
L 188.050652 124.159296 
L 188.005082 125.227293 
L 187.989878 125.243259 
L 187.822207 119.142198 
L 187.761038 121.088364 
L 187.653735 124.940779 
L 187.592272 124.25421 
L 187.546105 122.463276 
L 187.469024 123.659006 
L 187.422695 123.614654 
L 187.314356 126.297063 
L 187.002967 121.459147 
L 186.987326 121.701309 
L 186.940358 122.829623 
L 186.814805 126.988954 
L 186.79908 126.847915 
L 186.720347 124.194778 
L 186.673022 126.087721 
L 186.594006 125.377202 
L 186.578182 125.746211 
L 186.514813 125.662829 
L 186.403643 129.49839 
L 186.228235 122.739145 
L 186.212245 122.766644 
L 186.164233 123.011467 
L 186.05195 124.240904 
L 185.987627 125.310674 
L 185.971528 124.318964 
L 185.939308 122.450857 
L 185.858628 123.171134 
L 185.826304 123.823108 
L 185.793951 121.584219 
L 185.68048 118.468048 
L 185.66424 118.619732 
L 185.485104 123.839962 
L 185.468774 123.73263 
L 185.370633 121.993145 
L 185.35425 122.502306 
L 185.173528 125.140363 
L 185.157053 124.954971 
L 185.124079 125.734679 
L 185.10758 126.217229 
L 185.07456 125.016177 
L 185.024972 125.501388 
L 184.991875 124.397023 
L 184.892395 124.569996 
L 184.609002 117.603184 
L 184.59226 117.350377 
L 184.525215 117.942033 
L 184.474848 118.166454 
L 184.407579 119.340895 
L 184.289548 123.160489 
L 184.272655 122.924537 
L 183.916001 116.554702 
L 183.796311 117.705193 
L 183.693394 119.522738 
L 183.486655 124.831673 
L 183.365495 127.045725 
L 183.417471 124.423634 
L 183.296073 126.635912 
L 183.278696 126.083286 
L 183.243917 127.249744 
L 183.226514 128.109286 
L 183.209103 125.512032 
L 183.121918 120.747741 
L 183.086983 122.945826 
L 183.069503 124.846752 
L 183.01701 121.481323 
L 182.999495 121.490193 
L 182.946898 120.004401 
L 182.876646 120.056736 
L 182.841467 121.694212 
L 182.788634 119.881102 
L 182.771005 120.229709 
L 182.718065 120.578316 
L 182.700401 119.803043 
L 182.558768 116.156422 
L 182.52327 116.871376 
L 182.487737 116.131584 
L 182.469957 116.818153 
L 182.43437 117.933163 
L 182.398747 116.543171 
L 182.363088 117.754868 
L 182.166316 114.630713 
L 182.11246 116.61236 
L 182.040523 115.324378 
L 182.0045 115.402438 
L 181.950396 117.058541 
L 181.878127 116.727675 
L 181.860037 116.536075 
L 181.841937 117.362796 
L 181.733144 119.461533 
L 181.714979 119.20163 
L 181.642226 119.846508 
L 181.587563 117.859538 
L 181.569323 118.451194 
L 181.514546 116.687758 
L 181.368056 115.588716 
L 181.331339 116.46866 
L 181.312966 115.752818 
L 181.239377 112.855746 
L 181.184085 114.597892 
L 181.128705 115.415743 
L 180.9806 119.790624 
L 180.701215 115.90805 
L 180.645071 117.578347 
L 180.607592 115.808702 
L 180.588838 115.621536 
L 180.551299 116.152873 
L 180.494916 118.481353 
L 180.325223 124.178811 
L 180.154709 120.89765 
L 180.135712 120.947325 
L 180.116705 120.996999 
L 180.059622 122.531578 
L 179.983367 122.316027 
L 179.83036 120.153424 
L 179.676686 117.159664 
L 179.638162 117.789462 
L 179.560989 118.784721 
L 179.483646 122.14128 
L 179.464284 120.061704 
L 179.444911 118.218967 
L 177.62102 115.957547 
L 177.435009 116.063105 
L 177.248012 114.133793 
L 176.871014 114.673113 
L 176.680993 116.670727 
L 176.489941 115.447499 
L 176.297848 115.892793 
L 175.910494 114.5782 
L 175.715208 113.835747 
L 175.321362 114.79996 
L 175.122776 114.407888 
L 174.923065 113.031202 
L 174.520215 112.387211 
L 174.112709 112.636469 
L 173.907175 112.070538 
L 173.700436 112.318909 
L 173.283284 114.061943 
L 172.861136 110.452577 
L 172.433872 109.877775 
L 172.218281 111.336069 
L 172.001364 111.282846 
L 171.783104 113.027654 
L 171.342487 108.300618 
L 171.120095 106.413884 
L 170.896292 106.082131 
L 170.671058 105.532166 
L 169.986592 110.551925 
L 169.522784 106.101646 
L 169.052791 105.533053 
L 168.815424 107.56881 
L 168.576447 106.945221 
L 168.335839 105.949962 
L 168.093577 105.776989 
L 167.849639 105.910045 
L 167.604001 105.721993 
L 167.356639 105.16227 
L 167.107529 105.349436 
L 166.603965 104.457961 
L 166.093102 108.037167 
L 165.834867 106.537182 
L 165.574726 104.099596 
L 165.312651 103.321662 
L 165.048613 105.370725 
L 164.782582 106.244459 
L 164.514528 106.502588 
L 164.24442 105.869241 
L 163.697915 106.101646 
L 163.421451 104.525376 
L 163.142802 103.927511 
L 162.861933 102.419543 
L 162.578807 102.236812 
L 162.293389 102.299792 
L 162.005642 100.966571 
L 161.715525 101.471297 
L 161.423001 99.665283 
L 161.12803 100.946169 
L 160.830569 100.799808 
L 160.530576 102.689203 
L 159.922821 101.564436 
L 159.614968 101.847402 
L 159.304403 102.831129 
L 158.991077 102.659043 
L 157.709157 97.737746 
L 157.381258 97.843303 
L 157.05028 97.713795 
L 156.716164 99.578354 
L 156.378851 99.515374 
L 156.038279 99.616496 
L 155.694385 98.510357 
L 154.6421 101.562662 
L 154.28424 101.910382 
L 153.922709 99.010648 
L 153.18833 96.888848 
L 152.815323 97.712021 
L 152.438325 99.346836 
L 152.057252 99.516261 
L 151.672014 98.943233 
L 151.282519 97.159395 
L 150.888673 95.88738 
L 150.490375 95.741906 
L 149.68002 96.792161 
L 149.267747 97.697829 
L 148.850595 95.914878 
L 148.428447 94.893008 
L 148.001182 94.237486 
L 147.568675 95.324997 
L 147.130795 95.819078 
L 146.238369 94.001533 
L 145.783538 94.103543 
L 145.322761 96.097609 
L 144.855881 94.791886 
L 144.382734 94.084028 
L 143.90315 93.762032 
L 143.41695 93.927909 
L 142.92395 93.841866 
L 142.423957 93.401894 
L 141.91677 94.096446 
L 141.402178 93.642282 
L 140.879962 92.428811 
L 139.811731 94.618913 
L 139.265226 93.641395 
L 138.710113 91.811431 
L 138.146118 91.246387 
L 137.572952 92.536143 
L 136.990312 92.517515 
L 136.39788 91.670392 
L 135.795319 92.09351 
L 135.182279 92.983211 
L 134.558388 92.400426 
L 133.923255 91.08051 
L 133.276468 88.108926 
L 132.617591 89.239902 
L 131.946162 89.993886 
L 131.261696 93.726551 
L 130.563675 94.534644 
L 129.124743 91.864654 
L 128.382633 89.959292 
L 127.624563 90.34338 
L 126.84983 91.523143 
L 126.057686 90.877378 
L 125.247331 91.801674 
L 124.417906 89.623104 
L 123.568493 91.218002 
L 122.698105 89.590283 
L 121.80568 91.210905 
L 119.950045 92.164473 
L 117.991268 91.226872 
L 116.969489 90.005418 
L 115.917204 88.192308 
L 114.832536 87.178421 
L 113.713429 87.819751 
L 112.557623 88.150617 
L 111.36263 87.289301 
L 110.125699 87.91289 
L 108.843779 87.908455 
L 107.513473 89.623104 
L 106.130985 87.441872 
L 104.692054 86.768609 
L 103.191874 85.007834 
L 101.624997 86.210661 
L 99.985217 86.458145 
L 98.265416 86.379198 
L 98.08873 85.830121 
L 97.732677 87.584686 
L 97.553293 87.27777 
L 97.372991 85.972934 
L 97.191762 85.543607 
L 97.009597 85.878908 
L 96.642417 87.22987 
L 96.457383 87.063993 
L 95.896381 84.098618 
L 95.707378 84.794058 
L 95.134212 89.388925 
L 94.746857 91.196713 
L 94.551572 91.06277 
L 94.355199 90.612153 
L 93.959139 88.253514 
L 93.558579 85.581749 
L 93.356579 85.814154 
L 92.949072 87.307042 
L 92.743539 87.467596 
L 92.119648 85.357328 
L 91.909206 85.533849 
L 91.6975 85.00606 
L 91.054645 82.053991 
L 90.837728 82.21011 
L 90.619467 82.618149 
L 89.956459 85.694403 
L 89.507422 86.262996 
L 89.052591 85.73432 
L 88.822955 85.524092 
L 88.591814 86.098894 
L 88.359147 85.674889 
L 88.124934 85.744078 
L 87.889155 85.23403 
L 87.412811 86.828928 
L 87.172203 87.162455 
L 86.929941 87.275109 
L 86.686003 87.701775 
L 86.440365 88.622522 
L 85.69301 92.438569 
L 85.440329 92.516628 
L 85.185823 92.303738 
L 84.41109 87.208581 
L 84.149015 86.901665 
L 83.350892 86.616038 
L 82.80859 87.384215 
L 82.534278 87.075525 
L 82.257815 87.723951 
L 81.979166 87.974096 
L 81.698296 88.382135 
L 81.415171 87.967887 
L 81.129753 88.17368 
L 80.551889 89.072252 
L 80.259365 89.025239 
L 79.666932 87.66718 
L 79.36694 87.645004 
L 79.064372 87.989176 
L 78.759185 87.61041 
L 78.451332 86.64531 
L 78.140767 86.28872 
L 77.827441 86.206226 
L 77.511305 86.496288 
L 77.192308 86.195581 
L 76.902722 84.657454 
L 76.870398 84.657454 
L 76.708334 86.019947 
L 76.545521 84.532381 
L 76.381952 85.86028 
L 76.184663 82.911759 
L 76.052521 82.89047 
L 75.853374 84.642374 
L 75.653095 86.64531 
L 75.586082 86.64531 
L 75.41799 88.880651 
L 75.384275 88.659778 
L 75.249092 88.218032 
L 75.079381 89.708259 
L 74.771827 86.714499 
L 74.599796 86.624021 
L 74.392246 88.795495 
L 74.07861 88.715662 
L 73.867959 87.198823 
L 73.832727 87.198823 
L 73.832727 87.198823 
" clip-path="url(#pe679280648)" style="fill: none; stroke: #ff0000; stroke-width: 1.5; stroke-linecap: square"/>
   </g>
   <g id="patch_3">
    <path d="M 57.6 307.584 
L 57.6 41.472 
" style="fill: none; stroke: #000000; stroke-width: 0.8; stroke-linejoin: miter; stroke-linecap: square"/>
   </g>
   <g id="patch_4">
    <path d="M 414.72 307.584 
L 414.72 41.472 
" style="fill: none; stroke: #000000; stroke-width: 0.8; stroke-linejoin: miter; stroke-linecap: square"/>
   </g>
   <g id="patch_5">
    <path d="M 57.6 307.584 
L 414.72 307.584 
" style="fill: none; stroke: #000000; stroke-width: 0.8; stroke-linejoin: miter; stroke-linecap: square"/>
   </g>
   <g id="patch_6">
    <path d="M 57.6 41.472 
L 414.72 41.472 
" style="fill: none; stroke: #000000; stroke-width: 0.8; stroke-linejoin: miter; stroke-linecap: square"/>
   </g>
   <g id="text_14">
    <!-- MAX2870 S53MV phase noise -->
    <g transform="translate(146.98875 35.472)scale(0.12 -0.12)">
     <defs>
      <path id="DejaVuSans-4d" d="M 628 4666 
L 1569 4666 
L 2759 1491 
L 3956 4666 
L 4897 4666 
L 4897 0 
L 4281 0 
L 4281 4097 
L 3078 897 
L 2444 897 
L 1241 4097 
L 1241 0 
L 628 0 
L 628 4666 
z
" transform="scale(0.015625)"/>
      <path id="DejaVuSans-41" d="M 2188 4044 
L 1331 1722 
L 3047 1722 
L 2188 4044 
z
M 1831 4666 
L 2547 4666 
L 4325 0 
L 3669 0 
L 3244 1197 
L 1141 1197 
L 716 0 
L 50 0 
L 1831 4666 
z
" transform="scale(0.015625)"/>
      <path id="DejaVuSans-58" d="M 403 4666 
L 1081 4666 
L 2241 2931 
L 3406 4666 
L 4084 4666 
L 2584 2425 
L 4184 0 
L 3506 0 
L 2194 1984 
L 872 0 
L 191 0 
L 1856 2491 
L 403 4666 
z
" transform="scale(0.015625)"/>
      <path id="DejaVuSans-53" d="M 3425 4513 
L 3425 3897 
Q 3066 4069 2747 4153 
Q 2428 4238 2131 4238 
Q 1616 4238 1336 4038 
Q 1056 3838 1056 3469 
Q 1056 3159 1242 3001 
Q 1428 2844 1947 2747 
L 2328 2669 
Q 3034 2534 3370 2195 
Q 3706 1856 3706 1288 
Q 3706 609 3251 259 
Q 2797 -91 1919 -91 
Q 1588 -91 1214 -16 
Q 841 59 441 206 
L 441 856 
Q 825 641 1194 531 
Q 1563 422 1919 422 
Q 2459 422 2753 634 
Q 3047 847 3047 1241 
Q 3047 1584 2836 1778 
Q 2625 1972 2144 2069 
L 1759 2144 
Q 1053 2284 737 2584 
Q 422 2884 422 3419 
Q 422 4038 858 4394 
Q 1294 4750 2059 4750 
Q 2388 4750 2728 4690 
Q 3069 4631 3425 4513 
z
" transform="scale(0.015625)"/>
      <path id="DejaVuSans-56" d="M 1831 0 
L 50 4666 
L 709 4666 
L 2188 738 
L 3669 4666 
L 4325 4666 
L 2547 0 
L 1831 0 
z
" transform="scale(0.015625)"/>
      <path id="DejaVuSans-70" d="M 1159 525 
L 1159 -1331 
L 581 -1331 
L 581 3500 
L 1159 3500 
L 1159 2969 
Q 1341 3281 1617 3432 
Q 1894 3584 2278 3584 
Q 2916 3584 3314 3078 
Q 3713 2572 3713 1747 
Q 3713 922 3314 415 
Q 2916 -91 2278 -91 
Q 1894 -91 1617 61 
Q 1341 213 1159 525 
z
M 3116 1747 
Q 3116 2381 2855 2742 
Q 2594 3103 2138 3103 
Q 1681 3103 1420 2742 
Q 1159 2381 1159 1747 
Q 1159 1113 1420 752 
Q 1681 391 2138 391 
Q 2594 391 2855 752 
Q 3116 1113 3116 1747 
z
" transform="scale(0.015625)"/>
     </defs>
     <use xlink:href="#DejaVuSans-4d"/>
     <use xlink:href="#DejaVuSans-41" x="86.279297"/>
     <use xlink:href="#DejaVuSans-58" x="154.6875"/>
     <use xlink:href="#DejaVuSans-32" x="223.193359"/>
     <use xlink:href="#DejaVuSans-38" x="286.816406"/>
     <use xlink:href="#DejaVuSans-37" x="350.439453"/>
     <use xlink:href="#DejaVuSans-30" x="414.0625"/>
     <use xlink:href="#DejaVuSans-20" x="477.685547"/>
     <use xlink:href="#DejaVuSans-53" x="509.472656"/>
     <use xlink:href="#DejaVuSans-35" x="572.949219"/>
     <use xlink:href="#DejaVuSans-33" x="636.572266"/>
     <use xlink:href="#DejaVuSans-4d" x="700.195312"/>
     <use xlink:href="#DejaVuSans-56" x="786.474609"/>
     <use xlink:href="#DejaVuSans-20" x="854.882812"/>
     <use xlink:href="#DejaVuSans-70" x="886.669922"/>
     <use xlink:href="#DejaVuSans-68" x="950.146484"/>
     <use xlink:href="#DejaVuSans-61" x="1013.525391"/>
     <use xlink:href="#DejaVuSans-73" x="1074.804688"/>
     <use xlink:href="#DejaVuSans-65" x="1126.904297"/>
     <use xlink:href="#DejaVuSans-20" x="1188.427734"/>
     <use xlink:href="#DejaVuSans-6e" x="1220.214844"/>
     <use xlink:href="#DejaVuSans-6f" x="1283.59375"/>
     <use xlink:href="#DejaVuSans-69" x="1344.775391"/>
     <use xlink:href="#DejaVuSans-73" x="1372.558594"/>
     <use xlink:href="#DejaVuSans-65" x="1424.658203"/>
    </g>
   </g>
   <g id="legend_1">
    <g id="patch_7">
     <path d="M 325.695 64.150125 
L 407.72 64.150125 
Q 409.72 64.150125 409.72 62.150125 
L 409.72 48.472 
Q 409.72 46.472 407.72 46.472 
L 325.695 46.472 
Q 323.695 46.472 323.695 48.472 
L 323.695 62.150125 
Q 323.695 64.150125 325.695 64.150125 
z
" style="fill: #ffffff; opacity: 0.8; stroke: #cccccc; stroke-linejoin: miter"/>
    </g>
    <g id="line2d_48">
     <path d="M 327.695 54.570438 
L 337.695 54.570438 
L 347.695 54.570438 
" style="fill: none; stroke: #ff0000; stroke-width: 1.5; stroke-linecap: square"/>
    </g>
    <g id="text_15">
     <!-- 4230 MHz -->
     <g transform="translate(355.695 58.070438)scale(0.1 -0.1)">
      <use xlink:href="#DejaVuSans-34"/>
      <use xlink:href="#DejaVuSans-32" x="63.623047"/>
      <use xlink:href="#DejaVuSans-33" x="127.246094"/>
      <use xlink:href="#DejaVuSans-30" x="190.869141"/>
      <use xlink:href="#DejaVuSans-20" x="254.492188"/>
      <use xlink:href="#DejaVuSans-4d" x="286.279297"/>
      <use xlink:href="#DejaVuSans-48" x="372.558594"/>
      <use xlink:href="#DejaVuSans-7a" x="447.753906"/>
     </g>
    </g>
   </g>
  </g>
 </g>
 <defs>
  <clipPath id="pe679280648">
   <rect x="57.6" y="41.472" width="357.12" height="266.112"/>
  </clipPath>
 </defs>
</svg>
